<svg xmlns="http://www.w3.org/2000/svg" width="200" height="150" viewBox="0 0 200 150"><rect width="100%" height="100%" fill="#DDDDDD"/><path fill="#999999" d="M46.68 81.66h5.01q.54 0 .86.3.32.3.32.8v2H39.48v-1.11q0-.33.14-.71.14-.37.45-.66L46 76.34q.74-.76 1.33-1.45.58-.69.97-1.36.4-.68.6-1.37.21-.7.21-1.47 0-.7-.2-1.23-.2-.54-.57-.9-.37-.36-.89-.55-.52-.18-1.17-.18-.59 0-1.1.17-.51.17-.9.47-.39.31-.66.71-.27.41-.41.89-.22.62-.59.83-.36.2-1.05.09l-1.76-.31q.21-1.4.79-2.46.58-1.06 1.45-1.77t1.99-1.07q1.13-.36 2.43-.36 1.35 0 2.47.4t1.92 1.13q.79.73 1.24 1.75.44 1.03.44 2.28 0 1.08-.31 2-.32.92-.85 1.76-.54.84-1.25 1.62-.72.78-1.5 1.59l-4.4 4.5q.63-.19 1.26-.29.63-.1 1.19-.1ZM69.09 75q0 2.55-.54 4.43-.55 1.89-1.51 3.12-.97 1.22-2.29 1.83-1.31.6-2.84.6-1.52 0-2.83-.6-1.3-.61-2.26-1.83-.96-1.23-1.5-3.12-.54-1.88-.54-4.43 0-2.57.54-4.44.54-1.88 1.5-3.11t2.26-1.83q1.31-.6 2.83-.6 1.53 0 2.84.6 1.32.6 2.29 1.83.96 1.23 1.51 3.11.54 1.87.54 4.44Zm-3.44 0q0-2.12-.31-3.51-.31-1.39-.83-2.21-.52-.83-1.19-1.16-.68-.33-1.41-.33-.71 0-1.38.33-.67.33-1.18 1.16-.52.82-.82 2.21-.3 1.39-.3 3.51t.3 3.51q.3 1.39.82 2.21.51.83 1.18 1.16.67.33 1.38.33.73 0 1.41-.33.67-.33 1.19-1.16.52-.82.83-2.21.31-1.39.31-3.51Zm19.1 0q0 2.55-.54 4.43-.55 1.89-1.51 3.12-.97 1.22-2.29 1.83-1.31.6-2.84.6-1.52 0-2.83-.6-1.3-.61-2.26-1.83-.96-1.23-1.5-3.12-.54-1.88-.54-4.43 0-2.57.54-4.44.54-1.88 1.5-3.11t2.26-1.83q1.31-.6 2.83-.6 1.53 0 2.84.6 1.32.6 2.29 1.83.96 1.23 1.51 3.11.54 1.87.54 4.44Zm-3.44 0q0-2.12-.31-3.51-.31-1.39-.83-2.21-.52-.83-1.19-1.16-.68-.33-1.41-.33-.71 0-1.38.33-.67.33-1.18 1.16-.52.82-.82 2.21-.3 1.39-.3 3.51t.3 3.51q.3 1.39.82 2.21.51.83 1.18 1.16.67.33 1.38.33.73 0 1.41-.33.67-.33 1.19-1.16.52-.82.83-2.21.31-1.39.31-3.51Zm24.88 5.29-1.77 1.74-4.57-4.57-4.62 4.6-1.77-1.74 4.62-4.63-4.4-4.4 1.75-1.76 4.4 4.4 4.38-4.37 1.78 1.75-4.39 4.39 4.59 4.59Zm18.48 1.97h3.51v2.5h-10.8v-2.5h3.96V70.88q0-.67.04-1.39l-2.81 2.35q-.24.19-.48.24-.23.04-.44 0t-.37-.14q-.17-.1-.25-.22l-1.05-1.45 5.95-5.06h2.74v17.05Zm11.37-14-.69 4.07q.65-.14 1.24-.2.6-.06 1.15-.06 1.54 0 2.72.46 1.17.46 1.97 1.27.79.81 1.2 1.89.4 1.09.4 2.35 0 1.55-.54 2.83-.55 1.28-1.52 2.2-.97.91-2.3 1.41-1.33.5-2.9.5-.92 0-1.74-.19-.83-.19-1.55-.51-.72-.32-1.33-.73-.62-.41-1.1-.87l1.02-1.42q.33-.46.85-.46.34 0 .69.22.35.22.8.47.46.26 1.07.48.61.21 1.48.21.92 0 1.62-.3.7-.29 1.17-.83.46-.53.7-1.26.23-.74.23-1.6 0-1.6-.92-2.5-.92-.89-2.73-.89-1.39 0-2.85.51l-2.08-.59 1.62-9.48h9.64v1.42q0 .71-.45 1.16-.44.44-1.51.44h-5.36ZM160.52 75q0 2.55-.55 4.43-.55 1.89-1.51 3.12-.97 1.22-2.28 1.83-1.32.6-2.85.6-1.52 0-2.82-.6-1.31-.61-2.27-1.83-.95-1.23-1.49-3.12-.54-1.88-.54-4.43 0-2.57.54-4.44.54-1.88 1.49-3.11.96-1.23 2.27-1.83 1.3-.6 2.82-.6 1.53 0 2.85.6 1.31.6 2.28 1.83.96 1.23 1.51 3.11.55 1.87.55 4.44Zm-3.45 0q0-2.12-.31-3.51-.31-1.39-.83-2.21-.52-.83-1.19-1.16-.68-.33-1.41-.33-.71 0-1.38.33-.67.33-1.18 1.16-.51.82-.82 2.21-.3 1.39-.3 3.51t.3 3.51q.31 1.39.82 2.21.51.83 1.18 1.16.67.33 1.38.33.73 0 1.41-.33.67-.33 1.19-1.16.52-.82.83-2.21.31-1.39.31-3.51Z"/></svg>